<svg width="44" height="44" viewBox="0 0 44 44" fill="none" xmlns="http://www.w3.org/2000/svg">
<path d="M2.9975 8.25C4.20063 8.25 5.17688 9.22625 5.17688 10.4294L5.1755 10.8377H16.038C17.5285 10.8377 18.2504 11.2585 19.3724 12.6802L19.5745 12.9415L21.7882 16.0146H41.6102C42.9302 16.0146 44 17.105 44 18.4511V34.2843C44 35.6304 42.9302 36.7207 41.6102 36.7207H15.3312C14.0112 36.7207 12.9429 35.6304 12.9429 34.2843L12.9415 27.0641H11.044C9.9055 27.0641 8.82063 26.5457 7.81275 25.6987C7.5845 25.5062 7.37138 25.3069 7.17338 25.1034L6.82963 24.7308L6.74713 24.6345H5.13012C4.92387 25.6245 4.04663 26.367 2.9975 26.367H2.17938C0.97625 26.367 0 25.3907 0 24.1876V10.4294C0 9.22625 0.97625 8.25 2.17938 8.25H2.9975V8.25ZM41.5195 17.3085H16.7296L20.8203 21.032C21.9024 22.0165 21.2809 23.3228 19.8935 23.9951C18.689 24.5795 17.2109 24.5974 16.0352 23.8686L15.8043 23.7133L14.234 22.2846V34.2196C14.234 34.8851 14.7661 35.4269 15.422 35.4269H41.5195C42.1754 35.4269 42.7061 34.8851 42.7061 34.2182V18.5158C42.7061 17.8503 42.1754 17.3085 41.5195 17.3085V17.3085ZM5.1755 23.3406H7.38375L7.62025 23.661L7.75913 23.8287L7.85537 23.9387C8.08912 24.2 8.35312 24.464 8.64325 24.7088C9.361 25.311 10.098 25.6891 10.8075 25.7593L11.0412 25.7702H12.9401V22.1568H12.0794C10.6494 22.1568 9.63462 21.6645 9.02825 20.8106L8.9045 20.6223C8.57587 20.0791 8.44525 19.5319 8.41775 18.9929L8.41225 18.7619H9.70475C9.70475 19.1606 9.78313 19.5745 10.0128 19.9526C10.329 20.4779 10.8859 20.8051 11.8167 20.856L12.078 20.8629H14.5943L16.621 22.7109C17.3539 23.2444 18.4456 23.2595 19.3297 22.8305C20.0172 22.4964 20.1657 22.1842 19.9499 21.989L15.5224 17.9602L15.5279 16.379V16.0146L20.2661 16.0174L18.6024 13.7101C17.5931 12.386 17.1875 12.1192 16.038 12.1192H5.1755V23.3406V23.3406ZM2.9975 9.34037H2.17938C1.62388 9.34037 1.166 9.75562 1.09863 10.2932L1.09037 10.4307V24.1863C1.09037 24.7418 1.50562 25.201 2.04325 25.2684L2.18075 25.2766H2.9975C3.553 25.2766 4.01088 24.8614 4.07825 24.3237L4.0865 24.1863V10.4294C4.0865 9.87388 3.67125 9.416 3.13363 9.34863L2.99612 9.34037H2.9975Z" fill="#242424"/>
<path d="M28.4707 32.838C32.0444 32.838 34.9415 29.9409 34.9415 26.3672C34.9415 22.7935 32.0444 19.8965 28.4707 19.8965C24.8971 19.8965 22 22.7935 22 26.3672C22 29.9409 24.8971 32.838 28.4707 32.838Z" fill="#0D5CB6"/>
<path d="M29.6916 26.1566L27.5686 25.6451C27.2524 25.5695 27.0324 25.3234 27.0324 25.0484C27.0324 24.7046 27.3624 24.4269 27.7694 24.4269H29.0963C29.3919 24.4269 29.6738 24.5052 29.9089 24.6496C30.0175 24.7142 30.1701 24.6936 30.2636 24.6139L30.6734 24.2674C30.7999 24.1615 30.7793 23.9882 30.6376 23.8961C30.1976 23.6115 29.6614 23.4561 29.0963 23.4561H29.0454V22.7274C29.0454 22.5954 28.9175 22.4854 28.7566 22.4854H28.1819C28.0238 22.4854 27.8945 22.594 27.8945 22.7274V23.4561H27.768C26.668 23.4561 25.7853 24.2536 25.8898 25.1996C25.964 25.872 26.5745 26.4165 27.3445 26.6021L29.3726 27.0902C29.6875 27.1659 29.9089 27.412 29.9089 27.687C29.9089 28.0307 29.5775 28.3085 29.1719 28.3085H27.845C27.5494 28.3085 27.2675 28.2315 27.031 28.0871C26.9238 28.0211 26.7725 28.0431 26.6776 28.1215L26.2679 28.468C26.1414 28.5739 26.162 28.7471 26.3023 28.8392C26.7436 29.1252 27.2799 29.2792 27.845 29.2792H27.8945V30.008C27.8945 30.1414 28.0238 30.25 28.1833 30.25H28.758C28.9161 30.25 29.0454 30.1414 29.0454 30.008V29.2792H29.0935C29.9144 29.2792 30.6885 28.8667 30.9525 28.2122C31.3183 27.313 30.6913 26.3986 29.6903 26.1566H29.6916Z" fill="white"/>
</svg>
